<svg xmlns="http://www.w3.org/2000/svg" width="138.182" height="138.182" viewBox="0 0 138.182 138.182"><defs><style>.a{fill:#fff;}.b{fill:#7d848a;}</style></defs><g transform="translate(-613.909 -5632)"><g transform="translate(-35.046 5604.843)"><rect class="a" width="97.709" height="97.709" rx="24.722" transform="translate(648.955 96.248) rotate(-45)"/><path class="b" d="M709.112,110.819a.321.321,0,0,1-.232.349,4.3,4.3,0,0,1-1.318.233,2.253,2.253,0,0,1-2.246-1.2,4.713,4.713,0,0,1-3.2,1.2,5.108,5.108,0,0,1-3.689-1.385,5.1,5.1,0,0,1,0-7.108,5.108,5.108,0,0,1,3.689-1.385,4.543,4.543,0,0,1,2.731.853V102.1a.257.257,0,0,1,.29-.291h1.782a.257.257,0,0,1,.291.291v6.507a.728.728,0,0,0,.184.524.648.648,0,0,0,.494.193,3.85,3.85,0,0,0,.716-.077c.207-.039.323.039.349.232Zm-6.972-1.355a2.509,2.509,0,0,0,1.956-.842,3.466,3.466,0,0,0,0-4.319,2.506,2.506,0,0,0-1.956-.843,2.617,2.617,0,0,0-2.005.843,3.366,3.366,0,0,0,0,4.319A2.62,2.62,0,0,0,702.14,109.464Z"/><path class="b" d="M713.2,111.4a3.069,3.069,0,0,1-1.965-.591,1.89,1.89,0,0,1-.746-1.559V97.7a.257.257,0,0,1,.29-.291h1.782a.258.258,0,0,1,.291.291v10.913a.728.728,0,0,0,.184.524.648.648,0,0,0,.494.193,3.868,3.868,0,0,0,.717-.077c.206-.039.322.039.348.232l.155,1.336a.3.3,0,0,1-.233.349A4.3,4.3,0,0,1,713.2,111.4Z"/><path class="b" d="M717.3,99.78a1.476,1.476,0,0,1-1.046-.4,1.291,1.291,0,0,1,0-1.917,1.563,1.563,0,0,1,2.082,0,1.272,1.272,0,0,1,0,1.917A1.484,1.484,0,0,1,717.3,99.78Zm1.53,11.621a3.074,3.074,0,0,1-1.966-.591,1.892,1.892,0,0,1-.745-1.559V102.1a.257.257,0,0,1,.29-.291H718.2a.257.257,0,0,1,.291.291v6.507a.724.724,0,0,0,.184.524.647.647,0,0,0,.493.193,3.852,3.852,0,0,0,.717-.077c.206-.039.322.039.349.232l.154,1.336a.3.3,0,0,1-.232.349A4.3,4.3,0,0,1,718.834,111.4Z"/><path class="b" d="M725.69,111.4a5.612,5.612,0,0,1-3.186-.814,3.165,3.165,0,0,1-1.423-2.266c-.026-.206.07-.31.29-.31l1.627.02a.309.309,0,0,1,.31.251q.425,1.3,2.382,1.3a2.788,2.788,0,0,0,1.356-.29.861.861,0,0,0,.523-.756.873.873,0,0,0-.639-.823,6.187,6.187,0,0,0-1.54-.377q-.9-.117-1.8-.311a3.053,3.053,0,0,1-1.539-.823,2.32,2.32,0,0,1-.639-1.733,2.512,2.512,0,0,1,1.123-2.13,4.937,4.937,0,0,1,2.963-.814,5.151,5.151,0,0,1,2.867.756,2.835,2.835,0,0,1,1.355,1.994q.039.311-.29.31H727.8c-.168,0-.271-.058-.31-.174a1.524,1.524,0,0,0-.726-.842,2.477,2.477,0,0,0-1.269-.32,2.547,2.547,0,0,0-1.268.271.81.81,0,0,0-.475.717.9.9,0,0,0,.455.793,2.6,2.6,0,0,0,1.124.368q.668.078,1.462.243a12.874,12.874,0,0,1,1.462.387,2.3,2.3,0,0,1,1.123.823,2.46,2.46,0,0,1,.456,1.53,2.585,2.585,0,0,1-1.143,2.189A4.981,4.981,0,0,1,725.69,111.4Z"/><path class="b" d="M736.168,111.4a5.172,5.172,0,0,1-3.738-1.356,5.247,5.247,0,0,1,0-7.166,5.8,5.8,0,0,1,6.846-.446,3.838,3.838,0,0,1,1.579,2.422q.059.309-.252.309h-1.84a.308.308,0,0,1-.31-.252,1.868,1.868,0,0,0-.833-1,2.741,2.741,0,0,0-1.452-.378,2.663,2.663,0,0,0-2.024.8,3.323,3.323,0,0,0,0,4.242,2.662,2.662,0,0,0,2.024.8,2.741,2.741,0,0,0,1.452-.377,1.867,1.867,0,0,0,.833-1,.309.309,0,0,1,.31-.252h1.84q.31,0,.252.311a3.836,3.836,0,0,1-1.579,2.42A5.189,5.189,0,0,1,736.168,111.4Z"/><path class="b" d="M750.955,110.045a5.858,5.858,0,0,1-7.5,0,5.222,5.222,0,0,1,0-7.166,5.858,5.858,0,0,1,7.5,0,5.222,5.222,0,0,1,0,7.166Zm-5.782-1.472a3,3,0,0,0,4.068,0,3.266,3.266,0,0,0,0-4.222,3,3,0,0,0-4.068,0,3.266,3.266,0,0,0,0,4.222Z"/><path class="b" d="M695.129,97.553a.29.29,0,0,1,.29.29v8.367a5.041,5.041,0,0,1-1.433,3.816,6.294,6.294,0,0,1-7.544.232,4.321,4.321,0,0,1-1.6-3.041c-.026-.206.071-.31.291-.31h1.9a.273.273,0,0,1,.291.272,2.242,2.242,0,0,0,.919,1.491,3.175,3.175,0,0,0,1.928.562,2.532,2.532,0,0,0,1.994-.853,3.259,3.259,0,0,0,.756-2.246v-5.815c0-.776-.828-.944-1.336-.974h-.15a.237.237,0,0,1-.236-.237V97.789a.236.236,0,0,1,.236-.236Z"/><path class="b" d="M691.135,116.305a1.328,1.328,0,0,1,1.379.962h-.505a.879.879,0,0,0-.879-.5,1.117,1.117,0,0,0,0,2.227.873.873,0,0,0,.993-.8h-.958v-.435h1.441a1.451,1.451,0,0,1-1.476,1.7,1.577,1.577,0,0,1,.005-3.154Z"/><path class="b" d="M694.923,119.459a1.577,1.577,0,1,1,1.573-1.577A1.5,1.5,0,0,1,694.923,119.459Zm.009-.483a1.1,1.1,0,1,0-1.05-1.094A1.013,1.013,0,0,0,694.932,118.976Z"/><path class="b" d="M699.318,117.821a.7.7,0,0,1,.5.711.868.868,0,0,1-.975.887h-1.375v-3.074h1.248a.854.854,0,0,1,.966.874A.641.641,0,0,1,699.318,117.821Zm-1.344-1.033v.866h.7c.294,0,.5-.123.5-.422s-.2-.444-.5-.444Zm0,1.283v.9h.835a.458.458,0,0,0,.342-.8.638.638,0,0,0-.4-.1Z"/><path class="b" d="M702.065,119.007v.412h-1.484v-.412h.487v-2.254h-.448v-.408h1.405v.408h-.448v2.254Z"/><path class="b" d="M704.878,116.793H703.52v.812H704.8v.453H703.52v.9H704.9v.465h-1.9v-3.074h1.872Z"/><path class="b" d="M708.4,119.345v.074h-.519l-.764-1.071h-.676v1.071h-.514v-3.074h1.269a.991.991,0,0,1,1.067,1,.964.964,0,0,1-.645.923Zm-1.208-1.419a.569.569,0,1,0,0-1.138h-.76v1.138Z"/><path class="b" d="M709.775,117.329l.035.975v1.115H709.3v-3.083h.184l1.867,2.069-.035-.94v-1.12h.509v3.079h-.176Z"/><path class="b" d="M714.358,119.459a1.577,1.577,0,1,1,1.572-1.577A1.5,1.5,0,0,1,714.358,119.459Zm.009-.483a1.1,1.1,0,1,0-1.05-1.094A1.013,1.013,0,0,0,714.367,118.976Z"/><path class="b" d="M719.5,116.349a1.535,1.535,0,0,1,0,3.07h-1.111v-3.07Zm-.009,2.605a1.075,1.075,0,0,0,0-2.144h-.6v2.144Z"/><path class="b" d="M723.846,116.793h-1.357v.812h1.283v.453h-1.283v.9h1.384v.465h-1.9v-3.074h1.871Z"/><path class="b" d="M725.408,118.958h1.322v.461h-1.836v-3.074h.514Z"/><path class="b" d="M730.791,116.793h-1.358v.812h1.283v.453h-1.283v.9h1.384v.465h-1.9v-3.074h1.872Z"/><path class="b" d="M732.128,118.545c.022.347.4.457.733.457s.712-.079.712-.461c0-.4-.417-.444-.773-.479-.562-.048-1.12-.228-1.12-.843,0-.633.558-.914,1.155-.914s1.138.264,1.151.892h-.47c-.022-.33-.382-.435-.686-.435-.281,0-.645.1-.645.444s.347.391.7.439c.623.07,1.194.193,1.194.9,0,.677-.637.914-1.212.914-.6.013-1.23-.268-1.243-.914Z"/><path class="b" d="M734.717,116.8v-.452H737v.452h-.892v2.622h-.5V116.8Z"/><path class="b" d="M738.079,118.783l-.3.636h-.536v-.066l1.423-3.03h.238l1.414,3.03v.066h-.532l-.3-.636Zm.167-.431h1.076l-.536-1.23Z"/><path class="b" d="M742.21,116.349a1.535,1.535,0,0,1,0,3.07H741.1v-3.07Zm-.009,2.605a1.075,1.075,0,0,0,0-2.144h-.6v2.144Z"/><path class="b" d="M746.064,119.459a1.577,1.577,0,1,1,1.573-1.577A1.5,1.5,0,0,1,746.064,119.459Zm.009-.483a1.1,1.1,0,1,0-1.05-1.094A1.013,1.013,0,0,0,746.073,118.976Z"/><path class="b" d="M718.29,60.336v1.7a1.672,1.672,0,0,1,.686,0h0V60.336A1.116,1.116,0,0,0,718.29,60.336Z"/><path class="b" d="M711.185,60.785a.3.3,0,0,0,.174.244,5.323,5.323,0,0,0,2.242.512,5.155,5.155,0,0,0,2.927-.938,4.039,4.039,0,0,1,4.169-.172,1.549,1.549,0,0,1-1.1.416h-.259v.6h.259a2.083,2.083,0,0,0,1.809-.941h0l0-.008h0a.3.3,0,0,0,.039-.148V56.765a.305.305,0,0,0-.132-.25,4.645,4.645,0,0,0-5.128,0,4.5,4.5,0,0,1-4.577.377.3.3,0,0,0-.324.5l1.959,1.693-1.94,1.425A.3.3,0,0,0,711.185,60.785Zm2.724-1.436a.3.3,0,0,0,.018-.471l-1.15-.995a5.072,5.072,0,0,0,3.751-.869,4.036,4.036,0,0,1,4.317-.086v2.9a4.658,4.658,0,0,0-4.656.279,4.48,4.48,0,0,1-4.089.573Z"/><path class="b" d="M718.289,58.853h.686V58.2h.653v-.686h-.653v-.653h-.686v.653h-.653V58.2h.653Z"/><path class="b" d="M733.291,83.682c.216-.257.444-.517.665-.769a14.937,14.937,0,0,0,2.448-3.4,6.036,6.036,0,0,0,.584-3.358,5.265,5.265,0,0,0-3.139-4.145,2.417,2.417,0,0,0,.341-1.555v-.013a.33.33,0,0,0-.561-.193,1.278,1.278,0,0,1-1.34.3l-.047-.018A6.272,6.272,0,0,0,730,70.12a6.339,6.339,0,0,0-.918.067c0-.015,0-.03,0-.045a2.1,2.1,0,0,0-.109-.671.329.329,0,0,0-.2-.2.332.332,0,0,0-.282.022.868.868,0,0,1-.434.116.97.97,0,0,1-.1-.006c-.182-.017-.342-.026-.487-.026a4.888,4.888,0,0,0-.694.049,4.75,4.75,0,0,0-.67.142,4.909,4.909,0,0,0-.635.23,4.935,4.935,0,0,0-1.137.7,5.1,5.1,0,0,0-.488.453c-.1.1-.192.208-.281.318s-.165.227-.242.344c-.157.239-.295.49-.454.728l-.051.074-.028.039c0,.007-.025.027-.025.035l0,0-.011.016c-.047.064-.1.127-.146.189s-.11.132-.167.2c-.087.1-.178.19-.271.28-.036.035-.073.068-.11.1-.065.06-.131.119-.2.176-.02.016-.039.033-.059.048l-1-.691-.159-.961c.067-.105.13-.211.187-.317l.037-.06c.03-.059.055-.119.083-.179l.02-.05c.023-.051.044-.1.065-.153l.025-.06c.009-.024.017-.047.025-.071l.282-.06.225-1.636h0v0l-.3-.073c-.007-.053-.011-.105-.02-.157-.012-.068-.022-.136-.039-.2a2.613,2.613,0,0,0-.21-.561c-.005-.012-.008-.024-.013-.037a2.1,2.1,0,0,0-1.183-1.031l-.04-.013.019-.047c.015-.036.029-.072.044-.107a2.074,2.074,0,0,1,.947-1,2.959,2.959,0,0,1,.1.3.288.288,0,0,0,.313.2.53.53,0,0,0,.237-.088,1.026,1.026,0,0,0,.285-.312,2.224,2.224,0,0,0,.156-2.059,1.463,1.463,0,0,0-1.259-.919,1.351,1.351,0,0,0-.552.1,1.6,1.6,0,0,0-2.887,0,1.348,1.348,0,0,0-.552-.1,1.461,1.461,0,0,0-1.258.919,2.226,2.226,0,0,0,.155,2.059,1.039,1.039,0,0,0,.285.312.534.534,0,0,0,.237.088.288.288,0,0,0,.313-.2s.036-.127.106-.3a2.077,2.077,0,0,1,.946,1c.015.035.03.071.044.107l.019.047-.04.013a2.1,2.1,0,0,0-1.183,1.031c-.005.013-.008.025-.013.037a2.606,2.606,0,0,0-.21.561c-.016.068-.027.136-.039.2-.009.052-.013.1-.02.157l-.3.073v0h0l.225,1.636.283.06c.008.024.015.047.024.071s.017.04.026.06c.02.051.042.1.064.153l.02.05c.028.06.054.12.084.179l.036.06c.058.107.122.215.191.322l-.159.956-1.008.695a5.451,5.451,0,0,1-.551-.512c-.03-.033-.06-.065-.089-.1-.112-.125-.216-.255-.314-.387l-.015-.019c0-.008-.02-.028-.025-.035l-.028-.039c-.017-.025-.034-.049-.05-.074-.159-.238-.3-.489-.455-.728-.077-.117-.154-.234-.242-.344s-.184-.215-.281-.318a5.086,5.086,0,0,0-1.032-.839,4.982,4.982,0,0,0-.593-.31,4.906,4.906,0,0,0-.635-.23,4.766,4.766,0,0,0-.669-.142,4.89,4.89,0,0,0-.695-.049c-.145,0-.3.009-.486.026a.988.988,0,0,1-.1.006.868.868,0,0,1-.434-.116.33.33,0,0,0-.477.182,2.123,2.123,0,0,0-.109.671c0,.021,0,.043,0,.064a6.317,6.317,0,0,0-3.28.325l-.046.018a1.279,1.279,0,0,1-1.341-.3.329.329,0,0,0-.56.193l0,.013a2.423,2.423,0,0,0,.342,1.555,5.265,5.265,0,0,0-3.139,4.145,6.018,6.018,0,0,0,.584,3.358,14.935,14.935,0,0,0,2.448,3.4c.221.252.449.512.665.769l.227.265a3.847,3.847,0,0,1,1.2,2.1,1.116,1.116,0,0,1-1.214,1.215,1.36,1.36,0,0,1-.466-.081.653.653,0,0,0-.183-.036v0a.751.751,0,0,0-.8.5.642.642,0,0,0-.178.025.658.658,0,0,0-.478.7l0,.035a3.825,3.825,0,0,0,3.721,3.378h.051a3.9,3.9,0,0,0,2.346-.824l.021.022a.656.656,0,0,0,.469.195.663.663,0,0,0,.382-.121,4.152,4.152,0,0,0,1.243-1.4l.006,0c.025-.045.047-.091.07-.136.022.038.043.077.066.115q.067.112.138.222a9.905,9.905,0,0,0,16.2,0q.072-.109.138-.222c.023-.038.045-.077.067-.115.022.045.045.091.07.136l.006,0a4.152,4.152,0,0,0,1.243,1.4.662.662,0,0,0,.851-.074l.02-.022a3.906,3.906,0,0,0,2.347.824h.051a3.825,3.825,0,0,0,3.72-3.378l0-.035a.659.659,0,0,0-.478-.7.648.648,0,0,0-.178-.025.752.752,0,0,0-.806-.5v0a.645.645,0,0,0-.183.036,1.364,1.364,0,0,1-.466.081,1.116,1.116,0,0,1-1.214-1.215,3.847,3.847,0,0,1,1.2-2.1ZM730,70.779a5.614,5.614,0,0,1,2.006.369l.052.019a1.937,1.937,0,0,0,1.449-.049,1.772,1.772,0,0,1-.294.66,9.375,9.375,0,0,0-1.293-.161,4.722,4.722,0,0,0-4.018,2.247.721.721,0,0,0-.712-.5h-1.929A5.633,5.633,0,0,1,730,70.779Zm.683,8.1c.016.053.035.105.056.156a1.96,1.96,0,0,0,1.883,1.224h.068c.012,0,0,0,.013,0h0c-1.425,1.455-3.418,2.233-4.78,3.749V78.78c.059-.056.105-.1.144-.139.387-.4.738-.845,1.136-1.238a3.792,3.792,0,0,1,2.129-1.211,1.633,1.633,0,0,1,1.005.117.929.929,0,0,1,.39.416.915.915,0,0,1-.185,1.032.774.774,0,0,1-.085.066.971.971,0,0,1-.452.167.759.759,0,0,1-.318-.033.8.8,0,0,0-.375-.053.733.733,0,0,0-.5.275A.764.764,0,0,0,730.685,78.878Zm-9.723-9.119-.063.579-.01,0h0l-.318.065-.306.063v-.876l.391.093Zm-2.334,1.717h.011l1.671-.358h0a3.6,3.6,0,0,1-.223.384c-.056.085-.118.168-.183.248a1.5,1.5,0,0,1-2.539,0c-.065-.08-.126-.163-.183-.248a3.581,3.581,0,0,1-.223-.384h0Zm-.983-.874V69.441l.668-.158V70.74Zm1.309.138V69.283l.668.158V70.6Zm-2.178-5.3a1.384,1.384,0,0,1,.482-.466A2.135,2.135,0,0,0,716,65.6a1.6,1.6,0,0,1,0-1.266.794.794,0,0,1,.68-.516,1.3,1.3,0,0,1,.667.17,2,2,0,0,1,1,1.306,2.086,2.086,0,0,0-.427-1.485,1.669,1.669,0,0,0-.17-.2.937.937,0,0,1,1.768,0,1.669,1.669,0,0,0-.17.2,2.081,2.081,0,0,0-.427,1.485,2,2,0,0,1,1-1.306,1.3,1.3,0,0,1,.667-.17.792.792,0,0,1,.68.516,1.605,1.605,0,0,1,0,1.266,2.133,2.133,0,0,0-1.261-.621,1.386,1.386,0,0,1,.483.466,2.738,2.738,0,0,0-1.243,1.318c-.018.04-.035.082-.051.123l-.035.084c-.184-.076-.349-.179-.528-.273h0c-.179.093-.345.2-.528.272-.012-.027-.024-.055-.035-.084s-.034-.083-.052-.123A2.736,2.736,0,0,0,716.776,65.444Zm.966,2.368c.148-.051.307-.094.456-.151a.529.529,0,0,1,.871,0c.149.057.308.1.456.151A1.68,1.68,0,0,1,720.563,69c-1.758-.433-1.881-.462-1.924-.464h-.01c-.044,0-.167.031-1.925.464A1.68,1.68,0,0,1,717.742,67.812Zm-1.361,2.529h0l-.01,0-.063-.579.309-.073.39-.093v.876l-.306-.063Zm.732,2.791.1-.565.045.037a2.064,2.064,0,0,0,1.376.585h0a2.062,2.062,0,0,0,1.376-.585l.047-.049.1.577,1.094.758c-.053.033-.108.065-.163.1a5.493,5.493,0,0,1-1.493.593,4.117,4.117,0,0,1-.968.136,4.283,4.283,0,0,1-.836-.109,5.486,5.486,0,0,1-1.542-.575c-.08-.044-.159-.092-.237-.14Zm-13.128-1.9a1.933,1.933,0,0,0,1.1-.068l.051-.019a5.642,5.642,0,0,1,6.746,2.212h-1.93a.723.723,0,0,0-.712.5,4.722,4.722,0,0,0-4.018-2.246,9.4,9.4,0,0,0-1.293.161,1.773,1.773,0,0,1-.294-.66A1.937,1.937,0,0,0,703.985,71.235Zm6.044,16.711c-.005.054-.01.107-.016.159l-.005.035c-.008.056-.016.112-.027.167l0,.014a3.516,3.516,0,0,1-.225.73l-.014.03c-.019.042-.038.084-.059.125s-.029.058-.045.087a3.481,3.481,0,0,1-1.071,1.219,3.5,3.5,0,0,0,.522-3.01l0-.009a4.833,4.833,0,0,1-.634,2.035l-.005.009a3.17,3.17,0,0,1-2.727,1.583h-.041a3.187,3.187,0,0,1-3.066-2.8v-.013l0-.011a.084.084,0,0,1,.016.022,2.317,2.317,0,0,0,4.255-1.121,2.32,2.32,0,0,1-1.017,1.168s-.009.007-.028.017a2.116,2.116,0,0,1-.408.173,1.741,1.741,0,0,1-2.29-.841,1.073,1.073,0,0,1,.146.056,2.144,2.144,0,0,0,.314.106,1.753,1.753,0,0,0,.355.037,2.89,2.89,0,0,0,.322-.014c.055,0,.109-.01.163-.016a1.155,1.155,0,0,0,.117-.024,1.833,1.833,0,0,0,.469-.171,1.658,1.658,0,0,0,.673-.655,1.875,1.875,0,0,0,.181-.462,2.235,2.235,0,0,0,.062-.534c0-1.069-.937-2.023-1.58-2.786a19.306,19.306,0,0,1-3.02-4.023,5.413,5.413,0,0,1-.528-2.989,4.5,4.5,0,0,1,4.412-3.967,3.941,3.941,0,0,1,4,3.6v1.849l-.005,0a9.544,9.544,0,0,0-1.526-1.488,3.124,3.124,0,0,0-3.191-.511,1.705,1.705,0,0,0-.57,2.449,1.57,1.57,0,0,0,1.745.559,1.23,1.23,0,0,1-1.763.664,1.439,1.439,0,0,1-.292-.15,2.445,2.445,0,0,1-.464-.41,2.384,2.384,0,0,1-.2-.251,2.545,2.545,0,0,1-.218-.388,2.408,2.408,0,0,1,.05-2.117,3.187,3.187,0,0,1,1.9-1.572,3.678,3.678,0,0,1,2.657.32c.114.065.223.14.33.216a1.864,1.864,0,0,1,.265.221,2.942,2.942,0,0,0-2.5-1.431,3.479,3.479,0,0,0-2.83,1.31,3.532,3.532,0,0,0-.68,2.815,6.636,6.636,0,0,0,1.741,2.805,28.593,28.593,0,0,1,3.381,4.581,4.206,4.206,0,0,1,.509,2.093,2.762,2.762,0,0,1-2.632,2.761h-.008a2.821,2.821,0,0,0,2.974-1.452c1.246-2.319-.722-4.671-2.1-6.374-.084-.105-.521-.609-.71-.832l1.593,1.151c.322.236.644.474.962.732a8.434,8.434,0,0,1,1.281,1.26A4.831,4.831,0,0,1,710.029,87.946Zm-5.592-7.692c.011,0,0,0,.013,0h.068a1.961,1.961,0,0,0,1.884-1.224c.021-.051.04-.1.056-.156a.763.763,0,0,0-.127-.7.728.728,0,0,0-.5-.275.8.8,0,0,0-.375.053.761.761,0,0,1-.318.033.971.971,0,0,1-.452-.167.687.687,0,0,1-.085-.066.915.915,0,0,1-.185-1.032.929.929,0,0,1,.39-.416,1.632,1.632,0,0,1,1.005-.117,3.792,3.792,0,0,1,2.129,1.211c.4.393.749.84,1.136,1.238.038.04.084.083.143.138V84c-1.361-1.515-3.354-2.293-4.78-3.748Zm22.017,7.715,0,.032a4.31,4.31,0,0,0,.089.59v0a7.437,7.437,0,0,1-.382.73c-.041.069-.084.138-.127.205a9.129,9.129,0,0,1-14.935,0c-.044-.067-.086-.136-.128-.205a7.442,7.442,0,0,1-.381-.73v0a4.3,4.3,0,0,0,.09-.59l0-.032a5.165,5.165,0,0,0-.735-2.961l0-.005V74.019h3.084l-.39-.659h0l.021.036a6.3,6.3,0,0,0-3.814-3.039,1.543,1.543,0,0,1-.016-.215c0-.04,0-.081.005-.12a1.571,1.571,0,0,0,.52.033c.163-.016.3-.023.425-.023h.107a4.369,4.369,0,0,1,.694.073,4.428,4.428,0,0,1,.659.18,4.319,4.319,0,0,1,1.175.643,4.3,4.3,0,0,1,.5.447,4.391,4.391,0,0,1,.44.542c.159.232.3.477.456.71a5.924,5.924,0,0,0,.512.658c.129.145.265.282.4.412.07.065.14.127.211.188l.021.018c.068.058.137.114.208.169l.029.022c.069.054.14.106.211.156l.029.02c.073.051.146.1.221.148l.016.01a6.2,6.2,0,0,0,.972.5l.05.021c.061.024.123.046.185.069.153.055.31.105.468.149a4.3,4.3,0,0,0,2.559,0c.157-.044.314-.094.467-.149l.186-.069.049-.021a6.152,6.152,0,0,0,.972-.5l.016-.01c.075-.048.148-.1.221-.148l.029-.02c.072-.05.142-.1.212-.156l.029-.022.066-.054h0c.018-.014.034-.03.051-.044s.059-.047.087-.071l.022-.018c.059-.051.118-.1.177-.158l.032-.029h0c.139-.13.275-.267.405-.412.087-.1.169-.2.248-.3l.051-.066c.067-.088.131-.177.193-.268l.019-.026.018-.028c.044-.066.087-.133.128-.2.1-.161.2-.324.31-.482a4.4,4.4,0,0,1,.44-.542,4.351,4.351,0,0,1,1.672-1.09,4.43,4.43,0,0,1,.659-.18,4.382,4.382,0,0,1,.694-.073h.107c.124,0,.262.007.425.023a1.571,1.571,0,0,0,.52-.033,1.2,1.2,0,0,1,.005.12,1.566,1.566,0,0,1-.011.181,6.3,6.3,0,0,0-3.94,3.073l.021-.036h0l-.391.659h3.084V85l0,.005A5.166,5.166,0,0,0,726.454,87.969Zm4.752-1.927a2.236,2.236,0,0,0,.063.534,1.835,1.835,0,0,0,.181.462,1.7,1.7,0,0,0,.288.376,1.654,1.654,0,0,0,.385.279,1.82,1.82,0,0,0,.469.171,1.137,1.137,0,0,0,.116.024c.054.006.109.012.163.016a2.9,2.9,0,0,0,.323.014,1.768,1.768,0,0,0,.355-.037,2.186,2.186,0,0,0,.314-.106,1.111,1.111,0,0,1,.145-.056,1.741,1.741,0,0,1-2.29.841,2.11,2.11,0,0,1-.407-.173c-.019-.01-.03-.016-.028-.017a2.316,2.316,0,0,1-1.017-1.168,2.317,2.317,0,0,0,4.255,1.121.109.109,0,0,1,.015-.022l0,.011,0,.013a3.186,3.186,0,0,1-3.065,2.8h-.041a3.169,3.169,0,0,1-2.727-1.583l-.005-.009a4.819,4.819,0,0,1-.634-2.035l0,.009a3.494,3.494,0,0,0,.521,3.01,3.492,3.492,0,0,1-1.071-1.219l-.045-.087c-.02-.041-.04-.083-.059-.125l-.013-.03a3.455,3.455,0,0,1-.225-.73l0-.014c-.01-.055-.019-.111-.026-.167l-.005-.035c-.007-.052-.012-.105-.016-.159a4.821,4.821,0,0,1,1.1-3.266,8.425,8.425,0,0,1,1.28-1.26c.319-.258.64-.5.962-.732l1.594-1.151c-.189.223-.626.727-.71.832-1.373,1.7-3.341,4.055-2.095,6.374a2.83,2.83,0,0,0,2.974,1.452h-.008a2.762,2.762,0,0,1-2.632-2.761,4.185,4.185,0,0,1,.509-2.093,28.593,28.593,0,0,1,3.381-4.581,6.636,6.636,0,0,0,1.741-2.805,3.532,3.532,0,0,0-.681-2.815,3.478,3.478,0,0,0-2.829-1.31,2.942,2.942,0,0,0-2.5,1.431,1.805,1.805,0,0,1,.264-.221c.108-.076.216-.151.331-.216a3.678,3.678,0,0,1,2.657-.32,3.187,3.187,0,0,1,1.9,1.572,2.6,2.6,0,0,1,.221,1.6,2.559,2.559,0,0,1-.389.908,2.27,2.27,0,0,1-.2.251,2.409,2.409,0,0,1-.463.41,1.467,1.467,0,0,1-.292.15,1.231,1.231,0,0,1-1.764-.664,1.572,1.572,0,0,0,1.746-.559,1.705,1.705,0,0,0-.571-2.449,3.123,3.123,0,0,0-3.19.511,9.546,9.546,0,0,0-1.526,1.488l-.006.006V75.877a3.943,3.943,0,0,1,4-3.6,4.5,4.5,0,0,1,4.412,3.967,5.4,5.4,0,0,1-.527,2.989,19.306,19.306,0,0,1-3.02,4.023C732.143,84.019,731.206,84.973,731.206,86.042Z"/><path class="b" d="M719.781,85.425v-.108a.3.3,0,0,0-.3-.3v.929l1.113-.359a1.1,1.1,0,0,0,.315.61,1.02,1.02,0,0,1,.284.445l-.816.352a1.231,1.231,0,0,0-.062.391,1.26,1.26,0,0,0,.062.39,1.252,1.252,0,0,1-.573-.246v-.287a.3.3,0,0,0-.3-.3v.933a1.708,1.708,0,0,0,.937.321.288.288,0,0,1,.283.288.083.083,0,0,0,.088-.083.844.844,0,0,0-.034-.237.9.9,0,0,1-.031-.234.886.886,0,0,1,.085-.381,1.156,1.156,0,0,1,.146-.037,1.212,1.212,0,0,1,.218-.02,1.2,1.2,0,0,1,.319.043,1.15,1.15,0,0,0,.2.036c.035,0,.069,0,.1,0a1.2,1.2,0,0,0,.366-.057s.045-.016.055.018-.029.065-.029.065a.626.626,0,0,1-.343.145,1.06,1.06,0,0,1-.168.007c.121.282.213.52.227.554a1.261,1.261,0,0,0,.781,0,1.239,1.239,0,0,1-.247.572h-.286a.3.3,0,0,0-.3.305h.932a1.711,1.711,0,0,0,.321-.937.289.289,0,0,1,.289-.283.083.083,0,0,0-.083-.088.809.809,0,0,0-.237.034.9.9,0,0,1-.615-.054,1.2,1.2,0,0,1-.014-.684h0a.282.282,0,0,0,.009-.049.958.958,0,0,0,.233.028.971.971,0,0,0,.97-.97.953.953,0,0,0-.1-.427l-.084-.179a1.63,1.63,0,0,1,.076-1.644h0l.028-.012a.877.877,0,0,0,.16-.089.579.579,0,0,0,.2-.383c0-.016,0-.033,0-.049v-.032a.531.531,0,0,0-.011-.1l-.068.044c-.036.024-.071.05-.1.077s-.067.055-.1.084-.062.06-.092.091-.057.064-.085.1l0,0-.022.029h0l-.009.013-.018.024-.026.036-.007.01a1.838,1.838,0,0,0-.114,1.9l.082.174a.761.761,0,0,1-.682,1.1h-.027a.7.7,0,0,1-.518-.267c-.024-.03-.046-.06-.065-.086a1.254,1.254,0,0,1-.23-.729l.015.018v0a.83.83,0,0,0,.3.2.021.021,0,0,0,.026-.029.9.9,0,0,1-.032-.473,1.194,1.194,0,0,1,.086-.268.262.262,0,0,0,.052.156.021.021,0,0,0,.038-.008,1.406,1.406,0,0,1,.142-.423c.031-.054.043-.076.044-.08.024-.044.05-.087.076-.13a1.414,1.414,0,0,0,.079-.136h0l.005-.009.008-.017.007-.015.007-.016.007-.015.007-.018.006-.015.007-.017.005-.016.006-.017.006-.016.005-.018.005-.016.005-.018.005-.016,0-.018,0-.016,0-.019,0-.016,0-.019,0-.016,0-.02,0-.016,0-.02,0-.016,0-.02,0-.016v-.11a1.257,1.257,0,0,0-.473-.983l.069.017a.019.019,0,0,0,.017-.034,1.25,1.25,0,0,0-.913-.265l-.068.01a.061.061,0,0,0-.048.041l-.041.132-.035.005a.359.359,0,0,0-.242.166l-.347.143a.071.071,0,0,0-.047.073.07.07,0,0,0,.02.046c0,.054.041.267.129.278l.109-.032h0l.015,0h0c.1-.026.228-.046.263.014,0,0,.074.166-.024.2a.938.938,0,0,1-.137.018l-.085.007-.051,0s-.054.161.047.21a.841.841,0,0,1,.248-.038c.017,0,.088,0,.106,0a.457.457,0,0,0,.052-.006,1.177,1.177,0,0,0,.375-.107.507.507,0,0,1-.27.182s-.087.029-.153.046a.7.7,0,0,0-.077.026,1.172,1.172,0,0,0-.428.314l-1.066-.5.017-.013v-.2a.306.306,0,0,0-.19-.282.244.244,0,0,0-.114-.029v.725l.894.644.353-.1a.056.056,0,0,1,.071.027.053.053,0,0,1-.022.07Z"/><path class="b" d="M715.22,88.3a1.261,1.261,0,0,1-.781,0,1.252,1.252,0,0,0,.246.573h.287a.3.3,0,0,1,.3.3h-.933a1.71,1.71,0,0,1-.321-.937.288.288,0,0,0-.288-.283.083.083,0,0,1,.083-.088.843.843,0,0,1,.237.034.9.9,0,0,0,.234.031.886.886,0,0,0,.381-.085,1.2,1.2,0,0,0,.014-.683h0a.383.383,0,0,1-.008-.049.959.959,0,0,1-.233.029.972.972,0,0,1-.971-.97.961.961,0,0,1,.1-.428l.084-.179a1.628,1.628,0,0,0-.076-1.643h0l-.029-.012a.952.952,0,0,1-.16-.089.583.583,0,0,1-.2-.383.4.4,0,0,1,0-.049v-.032a.625.625,0,0,1,.01-.1c.024.014.046.029.069.044s.071.05.1.077.067.055.1.084.063.06.093.091.057.063.084.1l0,0,.023.028h0l.009.013.018.024.026.036.007.01a1.836,1.836,0,0,1,.114,1.894l-.082.175a.753.753,0,0,0-.078.336.761.761,0,0,0,.76.76h.026a.7.7,0,0,0,.519-.266c.024-.031.046-.06.064-.087a1.251,1.251,0,0,0,.231-.728l-.015.018v0a.847.847,0,0,1-.3.2.02.02,0,0,1-.026-.028.889.889,0,0,0,.031-.473,1.089,1.089,0,0,0-.086-.268.252.252,0,0,1-.051.155.021.021,0,0,1-.038-.007,1.408,1.408,0,0,0-.142-.423.893.893,0,0,1-.044-.081c-.025-.043-.05-.087-.076-.129a1.162,1.162,0,0,1-.079-.137h0l0-.009-.008-.017-.007-.015-.008-.017-.006-.015-.007-.017-.006-.015-.007-.017-.005-.016-.007-.018-.005-.015-.005-.018-.005-.016-.005-.018-.005-.016-.005-.018,0-.017-.005-.018,0-.016,0-.019,0-.017,0-.019,0-.016,0-.02,0-.016,0-.021,0-.015v-.037l0-.024v-.049a1.255,1.255,0,0,1,.474-.983l-.069.017a.02.02,0,0,1-.018-.034,1.252,1.252,0,0,1,.914-.265l.067.01a.06.06,0,0,1,.048.041l.042.132.034.005a.358.358,0,0,1,.243.166l.347.143a.073.073,0,0,1,.047.073.075.075,0,0,1-.02.046c-.005.054-.041.267-.13.278l-.109-.033h0l-.015,0h0c-.1-.026-.227-.046-.262.014,0,0-.075.166.023.2a1.035,1.035,0,0,0,.138.019l.085.006.051,0s.054.162-.048.211a.807.807,0,0,0-.247-.038c-.017,0-.088,0-.106,0a.477.477,0,0,1-.053-.006,1.179,1.179,0,0,1-.374-.107.507.507,0,0,0,.27.182s.087.029.153.046a.486.486,0,0,1,.076.026,1.175,1.175,0,0,1,.429.314l1.066-.5-.017-.013v-.2a.3.3,0,0,1,.19-.282.238.238,0,0,1,.114-.029v.725l-.887.639-.381-.1a.054.054,0,0,0-.071.027.053.053,0,0,0,.022.069l1.013.512v-.108a.3.3,0,0,1,.3-.3v.929l-1.114-.36a1.091,1.091,0,0,1-.315.611,1.04,1.04,0,0,0-.284.444l.817.353a1.259,1.259,0,0,1,0,.78,1.248,1.248,0,0,0,.572-.246v-.286a.306.306,0,0,1,.3-.305v.933a1.71,1.71,0,0,1-.937.321.288.288,0,0,0-.283.288.083.083,0,0,1-.088-.082.839.839,0,0,1,.034-.237.9.9,0,0,0-.054-.616,1.194,1.194,0,0,0-.146-.036,1.21,1.21,0,0,0-.218-.02,1.229,1.229,0,0,0-.137.009l.071-.452a.053.053,0,0,0-.035-.061.055.055,0,0,0-.064.032Z"/><path class="b" d="M721.718,77.778A2.381,2.381,0,0,0,719.7,76.51a2.3,2.3,0,0,0-2.179,0,2.381,2.381,0,0,0-2.022,1.268,1.852,1.852,0,0,0-.351,3.04,2.307,2.307,0,0,0,1.774,1.425,1.533,1.533,0,0,1,1.278,1.471l0,4.021a1.175,1.175,0,0,1-1.075,1.121h-.238a.319.319,0,0,0-.319.319h4.078a.319.319,0,0,0-.319-.32h-.238a1.152,1.152,0,0,1-1.077-1.121l0-4.021a1.519,1.519,0,0,1,1.182-1.453l.059-.013a2.3,2.3,0,0,0,1.813-1.43,1.852,1.852,0,0,0-.351-3.04Zm-.06,2.566-.117.1-.056.143a1.662,1.662,0,0,1-1.083.987v0a3.071,3.071,0,0,0-.51.156l-.01.006c-.03.03-.057.063-.088.09l-.013.011c-.028.025-.056.049-.085.071s-.069.052-.1.076a1.745,1.745,0,0,1-1.967,0c-.036-.024-.07-.049-.1-.075s-.058-.047-.086-.072l-.012-.01c-.03-.027-.057-.059-.086-.088l-.014-.008a3.073,3.073,0,0,0-.51-.156v0a1.658,1.658,0,0,1-1.083-.986l-.056-.143-.116-.1a1.223,1.223,0,0,1,.232-2.01l.172-.09.09-.172a1.76,1.76,0,0,1,1.488-.933l.147,0,.13-.07a1.674,1.674,0,0,1,1.583,0l.129.07.147,0a1.757,1.757,0,0,1,1.488.933l.091.172.172.09a1.226,1.226,0,0,1,.232,2.011Z"/><path class="b" d="M722.541,75.39a6.383,6.383,0,0,1-1.377.579h4.078v8.846a6.621,6.621,0,0,1-.789,3.14c-.032.059-.065.118-.1.176a6.635,6.635,0,0,1-11.49,0c-.034-.058-.066-.117-.1-.176a6.572,6.572,0,0,1-.614-1.618,6.7,6.7,0,0,1-.175-1.522V75.969h4.15a6.6,6.6,0,0,1-1.412-.579H711.4v9.425a7.2,7.2,0,0,0,.858,3.415c.035.064.07.128.107.191a7.213,7.213,0,0,0,12.492,0c.036-.063.071-.127.106-.191a7.171,7.171,0,0,0,.668-1.761,7.267,7.267,0,0,0,.19-1.654V75.39Z"/><path class="b" d="M726.93,75.535l-.145-.145-.278.278-.279-.278-.145.145.279.278-.277.278.145.145.277-.278.278.278.145-.145-.278-.278Z"/><path class="b" d="M711.1,75.535l-.145-.145-.278.278-.279-.278-.145.145.279.278-.277.278.145.145.277-.278.278.278.145-.145-.278-.278Z"/><path class="b" d="M726.93,82.313l-.145-.145-.278.278-.279-.278-.145.145.279.278-.277.278.145.145.277-.278.278.278.145-.145-.278-.278Z"/><path class="b" d="M711.1,82.313l-.145-.145-.278.278-.279-.278-.145.145.279.278-.277.278.145.145.277-.278.278.278.145-.145-.278-.278Z"/><path class="b" d="M712.681,89.357l-.145-.145-.278.278-.279-.278-.145.145.279.278-.277.278.145.145.278-.278.278.278.145-.145-.278-.278Z"/><path class="b" d="M725.381,89.357l-.145-.145-.278.278-.279-.278-.145.145.279.278-.277.278.145.145.277-.278.278.278.145-.145-.278-.278Z"/><path class="b" d="M719.021,92.438l-.145-.145-.278.278-.279-.278-.145.145.279.278-.277.278.145.145.277-.278.278.278.145-.145-.278-.278Z"/></g></g></svg>